<?xml version="1.0" encoding="UTF-8"?>
<!DOCTYPE svg PUBLIC "-//W3C//DTD SVG 1.1//EN" "http://www.w3.org/Graphics/SVG/1.1/DTD/svg11.dtd">
<svg xmlns="http://www.w3.org/2000/svg" version="1.1" width="512px" height="512px" style="shape-rendering:geometricPrecision; text-rendering:geometricPrecision; image-rendering:optimizeQuality; fill-rule:evenodd; clip-rule:evenodd" xmlns:xlink="http://www.w3.org/1999/xlink">
<g><path style="opacity:0.987" fill="#000000" d="M 139.5,79.5 C 216.834,79.3333 294.167,79.5 371.5,80C 407.476,88.3098 427.642,110.81 432,147.5C 432.667,185.5 432.667,223.5 432,261.5C 431.28,266.387 428.446,269.053 423.5,269.5C 414.475,266.077 405.142,263.911 395.5,263C 393.667,262.5 392.5,261.333 392,259.5C 391.95,221.141 391.283,182.807 390,144.5C 385.173,129.671 375.006,121.505 359.5,120C 290.167,119.333 220.833,119.333 151.5,120C 138.658,121.005 129.158,127.172 123,138.5C 121.189,142.988 120.189,147.654 120,152.5C 119.333,221.167 119.333,289.833 120,358.5C 120.437,370.936 125.937,380.436 136.5,387C 141.226,389.353 146.226,390.686 151.5,391C 191.833,391.333 232.167,391.667 272.5,392C 273.931,392.465 275.097,393.299 276,394.5C 279.724,403.888 285.391,411.888 293,418.5C 295.079,423.595 293.912,427.762 289.5,431C 237.796,431.978 186.129,431.644 134.5,430C 104.588,421.422 86.4216,401.922 80,371.5C 79.3333,294.167 79.3333,216.833 80,139.5C 87.3473,106.986 107.181,86.9864 139.5,79.5 Z"/></g>
<g><path style="opacity:0.962" fill="#000000" d="M 202.5,169.5 C 211.582,169.086 220.582,169.586 229.5,171C 246.588,221.264 263.088,271.764 279,322.5C 279.847,325.588 279.347,328.421 277.5,331C 270.5,331.667 263.5,331.667 256.5,331C 252.69,322.411 249.357,313.578 246.5,304.5C 225.174,303.334 203.841,303.167 182.5,304C 179.808,311.744 177.308,319.578 175,327.5C 174.535,328.931 173.701,330.097 172.5,331C 165.833,331.667 159.167,331.667 152.5,331C 151.333,330.5 150.5,329.667 150,328.5C 149.802,324.404 150.469,320.404 152,316.5C 167.535,268.895 182.868,221.228 198,173.5C 198.907,171.391 200.407,170.058 202.5,169.5 Z M 214.5,205.5 C 223.072,229.886 231.072,254.552 238.5,279.5C 222.486,279.833 206.486,279.499 190.5,278.5C 198.51,254.139 206.51,229.805 214.5,205.5 Z"/></g>
<g><path style="opacity:0.996" fill="#000000" d="M 317.5,170.5 C 324.175,170.334 330.842,170.5 337.5,171C 338,171.5 338.5,172 339,172.5C 339.667,224.833 339.667,277.167 339,329.5C 338.5,330 338,330.5 337.5,331C 330.833,331.667 324.167,331.667 317.5,331C 317,330.5 316.5,330 316,329.5C 315.333,277.167 315.333,224.833 316,172.5C 316.717,171.956 317.217,171.289 317.5,170.5 Z"/></g>
<g><path style="opacity:0.968" fill="#000000" d="M 397.5,303.5 C 400.044,303.104 402.211,303.771 404,305.5C 409.333,318.833 414.667,332.167 420,345.5C 426.062,357.791 435.562,366.291 448.5,371C 460.279,375.39 471.946,380.057 483.5,385C 486.758,389.359 485.758,392.359 480.5,394C 464.603,399.516 449.269,406.183 434.5,414C 427.412,420.346 421.912,427.846 418,436.5C 413.46,448.62 408.627,460.62 403.5,472.5C 400.753,474.904 398.253,474.57 396,471.5C 389.964,455.052 382.964,439.052 375,423.5C 370.425,418.254 365.258,413.754 359.5,410C 345.58,404.138 331.58,398.471 317.5,393C 313.283,389.527 313.616,386.527 318.5,384C 331.833,378.667 345.167,373.333 358.5,368C 368.777,362.389 376.277,354.222 381,343.5C 386.223,329.983 391.723,316.649 397.5,303.5 Z"/></g>
</svg>
